# xmcd
#
# Track frame offsets:
#	187
#	5267
#	9195
#	13297
#	16012
#	28347
#	37175
#	39925
#	48245
#	51237
#	62115
#	69407
#	72822
#	81247
#	87497
#	90460
#	96302
#	101625
#	108762
#	113822
#	119310
#	124165
#	130087
#	133925
#	137275
#	145327
#	156867
#	168995
#	183490
#	188055
#	193645
#	201542
#	206850
#	209932
#	212840
#	214280
#	216307
#	227277
#	228890
#	230327
#	231575
#	233042
#	233692
#	245717
#	249307
#	256850
#	265400
#	279715
#	289950
#	298077
#	305887
#	316960
#	318907
#	322147
#	325062
#
# Disc length: 4466 seconds
#
# Revision: 1
# Processed by: cddbd v1.5.1PL0 Copyright (c) Steve Scherf et al.
# Submitted via: CDex 1.50Beta5
#
DISCID=3f117037
DTITLE=効果音 - 効果音大全集 [CD2]
DYEAR=1992
DGENRE=Unclassifiable
TTITLE0=生活篇 ドアが開く音〜閉まる音
TTITLE1=生活篇 カーテン, ガラス戸, 雨戸の開閉
TTITLE2=生活篇 台所風景
TTITLE3=生活篇 栓を抜く音、グラスにそそぐ音(2 種) コップの割れる音
TTITLE4=生活篇 時計の音(ハト時計, 目覚し時計, 柱時計, ストップ・ウォッチ, ラジオの時報)
TTITLE5=生活篇 電話(呼びリン, 受話器を置く, ダイヤル音, プッシュホン)
TTITLE6=生活篇 玄関の呼びリン(3 種)
TTITLE7=生活篇 入浴風景
TTITLE8=生活篇 トイレの音
TTITLE9=生活篇 学校のチャイム, 校庭風景
TTITLE10=仕事篇 タイプライター
TTITLE11=仕事篇 通信機
TTITLE12=仕事篇 工場風景(大工場)
TTITLE13=仕事篇 工場風景(町工場)
TTITLE14=仕事篇 ハサミ
TTITLE15=仕事篇 シャベルで穴を掘る
TTITLE16=仕事篇 かなづちで釘を打つ
TTITLE17=仕事篇 のこぎりで板を切る
TTITLE18=仕事篇 リベット
TTITLE19=仕事篇 削岩機
TTITLE20=仕事篇 ダイナマイト(2 種)
TTITLE21=仕事篇 はた織り
TTITLE22=仕事篇 歯の治療
TTITLE23=街の風景 自動販売機
TTITLE24=街の風景 パチンコ店
TTITLE25=街の風景 キャバレー, パチンコ店の呼び込み
TTITLE26=街の風景 たたき売り(バナナ, 茶わん)
TTITLE27=街の風景 チンドン屋(2 種)
TTITLE28=街の風景 横断歩道の「通りゃんせ」
TTITLE29=街の風景 街のノイズ
TTITLE30=街の風景 劇場(場内アナウンス - 拍手)
TTITLE31=効果音各種 モールス信号
TTITLE32=効果音各種 破壊音(2 種)
TTITLE33=効果音各種 爆発音(2 種)
TTITLE34=効果音各種 破く音(2 種)
TTITLE35=効果音各種 引きはがす音(2 種)
TTITLE36=効果音各種 恐怖音(2 種)
TTITLE37=効果音各種 ユーモラスな音(3 種)
TTITLE38=効果音各種 落下音(2 種)
TTITLE39=効果音各種 物を切る音
TTITLE40=効果音各種 物を刺す音
TTITLE41=効果音各種 バケツの水をかける音
TTITLE42=効果音各種 宇宙音〜 Ufo の飛行音
TTITLE43=効果音各種 ロボット
TTITLE44=効果音各種 ピストル, マシンガン, ライフル
TTITLE45=効果音各種 読経
TTITLE46=効果音各種 木魚
TTITLE47=効果音各種 情景描写の音楽(4 種)1.楽しい場面
TTITLE48=効果音各種 情景描写の音楽(4 種)2.悲しい場面
TTITLE49=効果音各種 情景描写の音楽(4 種)3.淋しい場面
TTITLE50=効果音各種 情景描写の音楽(4 種)4.静かな場面
TTITLE51=効果音各種 スネア・ドラムのロール(2 種)
TTITLE52=効果音各種 ファンファーレ(2 種)「威厳」「華美」
TTITLE53=効果音各種 オーケストラ・チューニング
TTITLE54=効果音各種 表彰式用音楽「見よ勇者は帰る」
EXTD=
EXTT0=
EXTT1=
EXTT2=
EXTT3=
EXTT4=
EXTT5=
EXTT6=
EXTT7=
EXTT8=
EXTT9=
EXTT10=
EXTT11=
EXTT12=
EXTT13=
EXTT14=
EXTT15=
EXTT16=
EXTT17=
EXTT18=
EXTT19=
EXTT20=
EXTT21=
EXTT22=
EXTT23=
EXTT24=
EXTT25=
EXTT26=
EXTT27=
EXTT28=
EXTT29=
EXTT30=
EXTT31=
EXTT32=
EXTT33=
EXTT34=
EXTT35=
EXTT36=
EXTT37=
EXTT38=
EXTT39=
EXTT40=
EXTT41=
EXTT42=
EXTT43=
EXTT44=
EXTT45=
EXTT46=
EXTT47=
EXTT48=
EXTT49=
EXTT50=
EXTT51=
EXTT52=
EXTT53=
EXTT54=
PLAYORDER=
